<svg xmlns="http://www.w3.org/2000/svg" width="22" height="22" viewBox="0 0 22 22">
    <g>
        <g>
            <g>
                <g>
                    <g>
                        <path d="M16.212 7.879c.419 0 .758.339.758.757v7.576c0 1.255-1.018 2.273-2.273 2.273H7.121c-1.255 0-2.273-1.018-2.273-2.273V8.636c0-.418.34-.757.758-.757zm-7.576 2.273c-.418 0-.757.339-.757.757v4.546c0 .418.339.757.757.757.419 0 .758-.339.758-.757v-4.546c0-.418-.34-.757-.758-.757zm4.546 0c-.419 0-.758.339-.758.757v4.546c0 .418.34.757.758.757s.757-.339.757-.757v-4.546c0-.418-.339-.757-.757-.757zm-.758-6.819c.99 0 1.832.633 2.144 1.515h2.402c.418 0 .757.34.757.758s-.339.758-.757.758H4.848c-.418 0-.757-.34-.757-.758s.34-.758.757-.758h2.403c.312-.882 1.153-1.515 2.143-1.515h3.03z" transform="translate(-25 -803) translate(0 782) translate(16 12) translate(9.09 9.09)"/>
                    </g>
                </g>
            </g>
        </g>
    </g>
</svg>
